#tb 0: 1/44100
#media_type 0: audio
#codec_id 0: pcm_s16le
#sample_rate 0: 44100
#channel_layout_name 0: 5 channels
0,          0,          0,     4096,    40960, 0x6e07b1c3
0,       4096,       4096,     4096,    40960, 0x48899b25
0,       8192,       8192,     4096,    40960, 0xe5bc7f1a
0,      12288,      12288,     4096,    40960, 0x5893b74a
0,      16384,      16384,     4096,    40960, 0xe828db5d
0,      20480,      20480,     4096,    40960, 0x0d34ace8
0,      24576,      24576,     4096,    40960, 0x008fa873
0,      28672,      28672,     4096,    40960, 0x2064eaf4
0,      32768,      32768,     4096,    40960, 0xb61fa202
0,      36864,      36864,     4096,    40960, 0xbc167598
0,      40960,      40960,     4096,    40960, 0xadc59a11
0,      45056,      45056,     4096,    40960, 0xd2c27fb2
0,      49152,      49152,     4096,    40960, 0x42c57686
0,      53248,      53248,     4096,    40960, 0xb02059ae
0,      57344,      57344,     4096,    40960, 0x0f8e5ba6
0,      61440,      61440,     4096,    40960, 0x9bee70ad
0,      65536,      65536,     4096,    40960, 0x12ca5387
0,      69632,      69632,     4096,    40960, 0xac009dd7
0,      73728,      73728,     4096,    40960, 0x83b4664f
0,      77824,      77824,     4096,    40960, 0xd7f41340
